<svg version="1.1" id="Layer_1" xmlns="http://www.w3.org/2000/svg" xmlns:xlink="http://www.w3.org/1999/xlink" x="0px" y="0px"
	 width="100%" viewBox="0 0 200 200" enable-background="new 0 0 200 200" xml:space="preserve">
<path fill="#FFFFFF" opacity="1.000000" stroke="none" 
	d="
M127.000000,201.000000 
	C84.692825,201.000000 42.885651,201.000000 1.039238,201.000000 
	C1.039238,134.401199 1.039238,67.802368 1.039238,1.101770 
	C67.556999,1.101770 134.114197,1.101770 200.835693,1.101770 
	C200.835693,67.666336 200.835693,134.333130 200.835693,201.000000 
	C176.469315,201.000000 151.984665,201.000000 127.000000,201.000000 
M109.938637,117.942719 
	C109.938637,117.942719 109.844475,117.882286 110.668053,117.961311 
	C112.831223,117.633553 114.994385,117.305794 117.323921,117.155029 
	C117.323921,117.155029 117.252975,117.387360 117.141792,118.149345 
	C117.715019,118.980232 118.288239,119.811119 118.861465,120.642006 
	C119.574905,119.763481 120.288338,118.884949 121.656990,117.812584 
	C122.104118,117.873116 122.551239,117.933655 123.161385,118.341103 
	C123.440208,118.236649 123.719032,118.132202 124.817520,117.841209 
	C126.212097,117.883415 127.606674,117.925629 129.065689,118.677856 
	C130.984924,122.970703 134.949326,124.047119 139.013168,125.845383 
	C139.146866,126.683990 139.280548,127.522598 139.390167,128.343674 
	C139.390167,128.343674 139.390945,128.371689 138.380966,128.149277 
	C137.345932,128.174133 136.310883,128.198975 134.751892,128.619888 
	C133.832993,128.703430 132.914078,128.786957 131.599197,128.426025 
	C131.218277,128.348572 130.837341,128.271118 129.717819,128.254578 
	C125.033623,127.736824 122.023193,130.072327 119.495438,133.708572 
	C119.086540,133.145569 118.677650,132.582565 118.129616,131.269958 
	C118.129440,130.507645 118.129257,129.745346 118.404274,128.637970 
	C118.064354,128.511139 117.724426,128.384323 117.142380,128.094376 
	C116.983650,127.977921 116.847267,127.839462 116.819786,126.875618 
	C115.296425,125.230232 113.773056,123.584854 111.505936,121.136154 
	C110.854950,126.938271 114.063530,126.926308 116.440125,128.478409 
	C116.046967,131.662109 116.049545,134.969040 115.111046,137.982925 
	C114.554955,139.768799 112.513519,141.092163 111.139961,142.623505 
	C109.785843,141.091537 107.727997,139.755966 107.233528,137.984100 
	C106.374443,134.905670 106.481361,131.557663 106.817474,128.080887 
	C107.063225,127.734146 107.334320,127.400154 107.523079,127.024757 
	C107.547050,126.977097 107.140060,126.712746 106.932724,126.548782 
	C106.634850,127.142883 106.336975,127.736992 105.360016,128.647049 
	C105.400925,133.348557 103.976128,138.869186 105.988037,142.469162 
	C107.374069,144.949219 113.520538,144.768829 117.884636,145.864105 
	C118.056343,142.736679 118.155853,140.924240 119.049652,139.065399 
	C119.314171,139.046204 119.578682,139.027008 120.147964,139.641861 
	C123.695747,145.574081 129.357697,146.934830 137.847656,143.363983 
	C138.859680,143.913147 139.871689,144.462311 141.044861,145.098923 
	C141.692749,140.467789 142.271957,136.327713 143.199997,133.013016 
	C143.986053,133.382095 144.772125,133.751190 145.454865,134.902802 
	C144.761719,139.421310 146.418900,142.986969 150.587860,144.648819 
	C154.686539,146.282639 158.412766,145.212479 161.031342,141.276535 
	C161.325424,140.834534 162.377090,140.896561 163.043442,141.450668 
	C164.164124,144.732956 166.697113,145.988556 169.696915,144.887161 
	C171.210236,144.331512 172.789963,142.342438 173.192337,140.717407 
	C173.985352,137.514755 171.576584,136.130569 168.904297,134.985535 
	C167.919998,134.563766 167.410782,133.033325 166.684860,132.008591 
	C167.836700,132.126221 169.000015,132.179504 170.136627,132.382416 
	C171.000534,132.536652 171.830444,132.881149 172.675491,133.140991 
	C172.993378,132.634140 173.311279,132.127289 173.629166,131.620453 
	C171.880737,130.454712 170.143875,128.410568 168.380417,128.387360 
	C166.830902,128.366959 164.124802,130.489578 163.975723,131.884399 
	C163.796524,133.561050 165.714279,135.514786 166.876114,137.246597 
	C167.187439,137.710678 168.236969,137.646866 168.622101,138.101273 
	C169.307602,138.910065 169.985580,139.883102 170.177322,140.881439 
	C170.264450,141.334991 169.183792,142.479416 168.631241,142.480499 
	C167.791351,142.482147 166.610901,141.977585 166.180344,141.302200 
	C165.299606,139.920639 164.941666,137.886108 162.157257,140.502457 
	C160.283386,137.956955 159.069763,139.655838 157.450089,140.999741 
	C153.675598,144.131577 150.142517,142.843430 148.900192,137.790741 
	C153.226364,137.790741 157.478516,137.790741 161.854446,137.790741 
	C162.687180,133.511917 160.590668,130.959595 157.858383,127.919754 
	C156.974564,123.755081 153.783600,121.858070 149.196014,122.326920 
	C147.967865,122.452446 145.506699,121.455276 145.498520,120.943306 
	C145.363739,112.526566 145.497269,104.104362 145.647217,95.684761 
	C145.710327,92.141586 146.025391,88.602852 146.086060,85.059700 
	C146.126907,82.673813 146.683578,79.874344 145.665848,77.982834 
	C143.695755,74.321335 143.804443,71.490669 145.782700,67.825493 
	C146.721344,66.086426 145.284653,63.065289 144.924072,60.624966 
	C143.143875,61.355415 141.363693,62.085865 138.804886,63.135792 
	C137.658218,61.030140 137.151138,59.371513 141.185776,57.786789 
	C143.455688,56.895210 145.239685,54.233448 146.636200,51.991447 
	C147.031219,51.357281 145.289215,49.391972 144.262329,47.565994 
	C143.152542,49.534622 142.588318,50.535461 141.868393,51.812527 
	C139.816391,47.551434 128.169724,46.743866 122.271072,50.079559 
	C120.384224,50.222813 118.497375,50.366070 115.273956,50.610806 
	C115.858383,52.851822 116.399712,54.927582 117.110931,57.791721 
	C117.044189,58.859066 116.977448,59.926411 116.236526,61.004307 
	C115.651588,61.371902 115.066643,61.739498 114.481705,62.107086 
	C115.297997,62.406239 116.114281,62.705391 117.115082,63.815666 
	C117.115723,65.474121 117.116371,67.132576 116.773567,69.538124 
	C116.911354,72.056923 117.049141,74.575729 117.183968,78.009003 
	C117.101906,82.004829 117.019844,86.000648 116.216545,90.137863 
	C115.910858,95.112144 115.577126,100.085274 115.370750,105.063667 
	C115.358665,105.355217 116.375450,105.689430 117.089256,106.741570 
	C117.032738,107.492439 116.976219,108.243317 116.067665,108.995171 
	C114.354507,109.000603 112.641357,109.006035 110.747910,108.230850 
	C110.790390,107.168381 110.832878,106.105904 111.480881,104.564850 
	C112.761772,100.885277 111.731171,99.004997 107.559036,98.941551 
	C104.068047,98.888458 100.582970,98.160095 97.097900,98.180443 
	C96.048882,98.186569 95.008652,99.699059 93.561562,100.836334 
	C93.405449,100.904694 93.249336,100.973053 92.440460,101.257942 
	C88.047264,101.347572 85.729340,98.951324 86.291626,95.388611 
	C87.050293,90.581711 87.604294,85.727081 87.892639,80.871941 
	C87.967461,79.612129 86.726173,78.274147 86.021500,76.974731 
	C86.021500,76.974731 86.036674,76.908615 85.900513,76.236977 
	C84.685188,75.439140 83.469864,74.641304 82.408760,73.944702 
	C83.781441,72.134430 84.919014,70.634209 86.030823,69.053429 
	C86.030823,69.053429 86.115128,69.046547 86.877640,68.834793 
	C87.250801,67.192879 88.078400,65.501755 87.907005,63.918800 
	C87.489136,60.059589 89.159019,58.564663 92.916122,59.437035 
	C92.739029,60.746948 92.561935,62.056866 92.249374,63.955200 
	C92.436546,64.295883 92.623711,64.636559 92.958939,65.771385 
	C92.972511,66.848183 92.986076,67.924988 93.147530,69.783318 
	C98.251686,70.416405 103.353111,71.401810 108.461868,71.441414 
	C109.782715,71.451660 112.010498,68.630539 112.279007,66.874176 
	C112.869667,63.010590 112.736755,58.971310 112.358849,55.055901 
	C112.201805,53.428913 110.821342,50.733395 109.726608,50.590031 
	C105.115227,49.986115 100.394951,49.997787 95.731323,50.190632 
	C94.795891,50.229313 93.933861,52.042976 93.000000,53.000153 
	C93.000000,53.000153 93.038803,53.036724 92.208199,53.011684 
	C85.158974,48.709827 76.856972,52.683174 69.341934,49.190342 
	C69.179008,50.655907 69.056526,51.757645 68.961243,52.938801 
	C68.961243,52.938801 68.877419,52.943356 68.167397,52.982349 
	C67.632866,53.691704 66.831421,54.331390 66.623978,55.126122 
	C66.280098,56.443554 66.773102,58.152115 66.112694,59.182701 
	C63.902191,62.632225 65.793884,63.036278 68.801338,63.755276 
	C68.741913,64.494423 68.682495,65.233566 67.966614,66.105103 
	C62.277596,70.820412 70.668098,70.569359 70.515701,73.331696 
	C64.743607,77.211777 64.743591,77.211838 68.789757,80.753708 
	C68.721420,81.490051 68.653076,82.226387 67.864059,82.980446 
	C67.100700,83.955841 65.793480,84.879494 65.694664,85.918114 
	C65.523705,87.715103 65.896683,89.650261 66.463043,91.390251 
	C66.703842,92.130020 68.007889,92.523697 68.981796,93.094887 
	C68.981796,93.094887 68.946823,93.245285 68.967140,94.090012 
	C68.964745,96.351875 68.962357,98.613731 68.976128,100.951584 
	C68.976128,100.951584 68.898476,100.950439 68.162857,100.988701 
	C67.490067,101.547783 66.291946,102.059647 66.236694,102.674248 
	C66.014099,105.150482 66.144485,107.658447 66.144485,110.633492 
	C66.419571,110.679131 67.501328,110.858635 68.772591,111.671356 
	C68.717415,112.104599 68.662231,112.537849 67.953590,113.106110 
	C65.407326,116.209755 66.739998,119.062874 71.022568,120.013290 
	C72.834602,120.415428 74.553017,121.239479 76.169586,121.819908 
	C76.923851,120.794868 77.972229,119.370148 79.670181,117.787766 
	C80.109589,117.840057 80.548988,117.892349 81.312927,118.595329 
	C83.947701,119.749641 86.582474,120.903961 89.254509,122.074600 
	C88.702248,118.421249 88.262459,115.511917 87.673439,111.615372 
	C90.140862,112.271500 91.475319,112.626350 92.956131,113.737747 
	C93.026924,115.018188 93.097717,116.298622 93.065933,118.382584 
	C91.601562,121.219856 90.137199,124.057129 88.672523,126.894257 
	C92.877419,126.132790 94.572449,123.739899 95.816704,117.768105 
	C97.211128,117.839035 98.605553,117.909966 100.164658,118.762695 
	C103.575569,120.190163 107.006363,121.826683 109.938637,117.942719 
M67.167259,125.157806 
	C66.808388,126.249886 66.449516,127.341957 65.644279,128.804062 
	C65.429062,129.504181 65.213837,130.204300 64.557648,131.693649 
	C61.605534,130.487656 58.520870,128.094055 55.738026,128.404663 
	C52.868927,128.724869 50.293674,131.677872 47.717884,133.393677 
	C45.170650,124.383575 41.572453,122.338341 30.367714,124.060539 
	C30.367714,130.936676 30.367714,137.813583 30.367714,145.252319 
	C34.177055,144.861145 37.920887,145.242233 40.941502,143.942551 
	C43.736614,142.739868 45.757607,139.738083 48.096333,137.550293 
	C48.167728,137.711731 48.388943,138.150894 48.560295,138.608719 
	C50.592171,144.037476 54.488731,146.360077 59.246014,144.969513 
	C63.661797,143.678741 65.899040,138.934937 64.706657,133.642151 
	C64.503914,132.742218 64.805283,131.728714 65.714241,131.083527 
	C66.499290,132.197891 67.804886,133.243637 67.962738,134.440720 
	C68.308159,137.060287 67.961281,139.763718 68.131096,142.417923 
	C68.191330,143.359390 68.930206,144.257431 69.359268,145.175293 
	C69.898972,145.054550 70.438683,144.933807 70.978386,144.813049 
	C70.978386,141.253021 70.723038,137.664047 71.121292,134.149139 
	C71.254959,132.969498 73.053192,131.978470 74.573982,131.529816 
	C73.721954,135.406128 76.297585,136.731262 79.186104,138.030197 
	C80.052765,138.419937 80.761528,139.554977 81.115555,140.507324 
	C81.269211,140.920700 80.181526,142.331772 79.935539,142.265060 
	C78.843224,141.968842 77.801285,141.377518 76.840057,140.743027 
	C76.117523,140.266113 75.545357,139.561386 74.906250,138.958084 
	C74.448410,139.244247 73.990570,139.530411 73.532738,139.816589 
	C74.566658,141.482803 75.220810,143.903427 76.714882,144.655563 
	C79.672066,146.144241 82.520103,145.156937 85.022202,141.974380 
	C85.540237,141.906723 86.058273,141.839066 87.049034,142.209885 
	C90.402969,146.115524 94.498016,145.678970 98.614136,144.055847 
	C99.114769,146.251602 99.560219,148.205307 100.005661,150.159012 
	C100.652496,150.043060 101.299339,149.927109 101.946175,149.811157 
	C101.946175,143.126022 101.981766,136.440308 101.868935,129.757065 
	C101.861115,129.293808 100.748871,128.849182 100.516151,127.904671 
	C100.516151,127.097244 100.516151,126.289818 100.516151,125.482391 
	C100.138870,125.480408 99.761589,125.478424 99.384300,125.476448 
	C99.256302,126.648003 99.128304,127.819565 98.724213,129.594772 
	C93.727364,126.971558 89.557098,128.117813 85.150963,132.556534 
	C83.204765,129.995972 81.392014,127.198395 76.810486,127.867432 
	C75.951172,126.965225 75.091850,126.063019 73.718330,124.620949 
	C73.380333,126.364243 73.180397,127.395432 72.219528,128.580688 
	C71.804207,127.514946 71.326218,126.468765 70.986267,125.379494 
	C70.216454,122.912880 69.195625,122.936424 67.167259,125.157806 
M93.001968,77.833931 
	C92.949013,79.219223 92.896057,80.604523 92.156204,82.154099 
	C90.342903,84.061722 90.127045,85.743134 92.989151,87.880112 
	C92.989151,89.669716 92.989151,91.459328 92.989151,93.404724 
	C98.949982,93.404724 104.493141,93.404724 110.254517,93.404724 
	C110.254517,87.728249 110.254517,82.355148 110.254517,76.523895 
	C104.385139,76.523895 98.786552,76.523895 93.071609,75.841385 
	C92.675323,75.384132 92.279030,74.926888 91.882729,74.469635 
	C91.647766,74.859146 91.138115,75.505150 91.222969,75.596024 
	C91.726883,76.135674 92.368423,76.546799 93.001968,77.833931 
M91.798462,96.477417 
	C91.876320,96.079117 91.954178,95.680809 92.032036,95.282509 
	C91.492599,95.462036 90.953171,95.641563 90.413742,95.821091 
	C90.705605,96.114647 90.997467,96.408203 91.798462,96.477417 
M81.434784,121.704987 
	C81.705948,121.989128 81.977119,122.273270 82.248283,122.557411 
	C82.365898,122.444969 82.591949,122.240959 82.585480,122.233299 
	C82.332420,121.933632 82.058189,121.651848 81.434784,121.704987 
z"/>
<path fill="#FEFFFE" opacity="1.000000" stroke="none" 
	d="
M122.990257,50.005798 
	C128.169724,46.743866 139.816391,47.551434 141.868393,51.812527 
	C142.588318,50.535461 143.152542,49.534622 144.262329,47.565994 
	C145.289215,49.391972 147.031219,51.357281 146.636200,51.991447 
	C145.239685,54.233448 143.455688,56.895210 141.185776,57.786789 
	C137.151138,59.371513 137.658218,61.030140 138.804886,63.135792 
	C141.363693,62.085865 143.143875,61.355415 144.924072,60.624969 
	C145.284653,63.065289 146.721344,66.086426 145.782700,67.825493 
	C143.804443,71.490669 143.695755,74.321335 145.665848,77.982834 
	C146.683578,79.874344 146.126907,82.673813 146.086060,85.059700 
	C146.025391,88.602852 145.710327,92.141586 145.647217,95.684761 
	C145.497269,104.104362 145.363739,112.526566 145.498520,120.943306 
	C145.506699,121.455276 147.967865,122.452446 149.196014,122.326920 
	C153.783600,121.858070 156.974564,123.755081 157.382050,128.296173 
	C153.051224,127.103432 149.920395,128.614609 146.543823,130.932129 
	C145.792953,130.808670 145.493484,130.754044 145.155930,130.420593 
	C143.216644,129.548248 141.315430,128.954727 139.414230,128.361206 
	C139.280548,127.522598 139.146866,126.683990 138.998169,125.034531 
	C137.590225,121.979607 136.197281,119.735542 134.783768,117.350319 
	C134.763199,117.209160 134.961304,117.003853 135.136765,116.936462 
	C135.391296,116.773903 135.556870,116.635521 135.534622,116.590950 
	C135.431183,116.383835 135.275742,116.202698 135.070160,115.576950 
	C135.050720,113.090622 135.100021,111.039612 135.297241,108.900101 
	C135.498444,108.710701 135.622803,108.566055 135.592407,108.516716 
	C135.478973,108.332520 135.314804,108.179581 135.088989,107.639633 
	C135.052155,106.501968 135.096008,105.739578 135.365173,104.785721 
	C135.432343,103.735603 135.274200,102.876945 135.027512,101.813637 
	C134.938965,101.608986 134.933182,101.163055 134.907104,100.790047 
	C133.016830,99.324913 131.152618,98.232788 129.904510,97.501602 
	C131.816177,95.734085 133.376129,94.291763 134.917068,92.400162 
	C134.982086,88.624619 135.066116,85.298363 135.383881,81.750954 
	C135.450409,80.359993 135.283188,79.190178 135.035248,77.799095 
	C134.954544,77.577827 134.958420,77.106789 134.927795,76.740273 
	C131.904831,75.910934 128.885132,75.571632 125.935127,74.917809 
	C124.912483,74.691147 124.062744,73.684357 123.134033,73.033905 
	C124.044044,72.360298 124.875244,71.310966 125.882248,71.099709 
	C127.456528,70.769440 129.211014,71.277596 130.774963,70.924599 
	C132.248215,70.592079 133.573807,69.605377 134.942123,68.584290 
	C134.989471,67.838638 135.059067,67.415161 135.278870,66.899857 
	C135.325638,66.541084 135.222198,66.274132 135.047638,65.591942 
	C135.029800,63.778412 135.083099,62.380119 135.340057,60.833115 
	C135.410202,60.129433 135.276688,59.574463 135.059845,58.606422 
	C135.017960,56.793217 135.059387,55.393082 135.256775,53.885880 
	C135.238647,53.538563 135.064575,53.298313 134.936203,53.046532 
	C134.981918,53.035000 134.924591,53.109867 134.893494,52.729988 
	C134.262787,51.904217 133.704330,51.150650 133.056717,51.064095 
	C129.713791,50.617294 126.348045,50.341347 122.990257,50.005798 
M142.224701,115.441330 
	C142.299301,114.844421 142.373901,114.247505 142.448486,113.650589 
	C142.049835,113.736275 141.651199,113.821960 141.252548,113.907646 
	C141.502228,114.604752 141.751907,115.301865 141.775330,116.559120 
	C141.701111,117.155716 141.626877,117.752312 141.552673,118.348915 
	C141.951080,118.262985 142.349487,118.177055 142.747894,118.091118 
	C142.497787,117.394646 142.247665,116.698166 142.224701,115.441330 
M142.918808,96.695343 
	C142.407745,96.433029 141.896698,96.170723 141.385651,95.908417 
	C141.389343,96.654022 141.393051,97.399620 141.396744,98.145226 
	C141.905380,97.877800 142.414001,97.610367 142.918808,96.695343 
z"/>
<path fill="#090809" opacity="1.000000" stroke="none" 
	d="
M92.843102,81.989815 
	C92.896057,80.604523 92.949013,79.219223 93.119011,77.335861 
	C93.236053,76.837799 93.187965,76.523895 93.187965,76.523895 
	C98.786552,76.523895 104.385139,76.523895 110.254517,76.523895 
	C110.254517,82.355148 110.254517,87.728249 110.254517,93.404724 
	C104.493141,93.404724 98.949982,93.404724 92.989151,93.404724 
	C92.989151,91.459328 92.989151,89.669716 92.997192,87.031578 
	C92.951187,84.785301 92.897141,83.387558 92.843102,81.989815 
z"/>
<path fill="#1A1A1A" opacity="1.000000" stroke="none" 
	d="
M64.873756,130.767670 
	C64.805283,131.728714 64.503914,132.742218 64.706657,133.642151 
	C65.899040,138.934937 63.661797,143.678741 59.246014,144.969513 
	C54.488731,146.360077 50.592171,144.037476 48.560295,138.608719 
	C48.388943,138.150894 48.167728,137.711731 48.096333,137.550293 
	C45.757607,139.738083 43.736614,142.739868 40.941502,143.942551 
	C37.920887,145.242233 34.177055,144.861145 30.367714,145.252319 
	C30.367714,137.813583 30.367714,130.936676 30.367714,124.060539 
	C41.572453,122.338341 45.170650,124.383575 47.717884,133.393677 
	C50.293674,131.677872 52.868927,128.724869 55.738026,128.404663 
	C58.520870,128.094055 61.605534,130.487656 64.748993,131.265717 
	C64.940331,130.837799 64.873756,130.767670 64.873756,130.767670 
M44.180538,131.965012 
	C41.902622,126.460747 40.393768,125.719131 33.142357,126.632790 
	C33.142357,131.698380 33.142357,136.781143 33.142357,141.843307 
	C42.132114,142.513428 44.219997,140.788391 44.180538,131.965012 
M55.111919,142.371277 
	C58.608280,143.265991 61.450878,141.856201 61.794197,138.538269 
	C62.031490,136.244965 60.766960,132.859344 59.005375,131.613266 
	C57.752979,130.727371 53.822037,131.890060 52.386154,133.385925 
	C49.878204,135.998627 50.837936,139.185959 53.554794,141.613815 
	C53.793015,141.826691 54.124340,141.935379 55.111919,142.371277 
z"/>
<path fill="#F18932" opacity="1.000000" stroke="none" 
	d="
M135.149338,108.988602 
	C135.100021,111.039612 135.050720,113.090622 134.966980,115.814316 
	C134.942139,116.659286 134.951721,116.831573 134.961304,117.003853 
	C134.961304,117.003853 134.763199,117.209160 134.374176,117.413589 
	C132.323837,117.734619 130.662552,117.851227 129.001251,117.967834 
	C127.606674,117.925629 126.212097,117.883415 124.160255,117.853348 
	C123.334785,117.908386 123.166573,117.951294 122.998367,117.994194 
	C122.551239,117.933655 122.104118,117.873116 120.958786,117.815063 
	C119.258049,117.674141 118.255516,117.530746 117.252975,117.387360 
	C117.252975,117.387360 117.323921,117.155029 117.274567,116.624329 
	C117.123383,113.727150 117.021545,111.360672 116.919708,108.994186 
	C116.976219,108.243317 117.032738,107.492439 117.105812,105.953217 
	C116.826172,102.189392 117.744034,100.513069 121.165413,100.735748 
	C125.744537,101.033791 130.343018,101.034607 134.933182,101.163055 
	C134.933182,101.163055 134.938965,101.608986 134.938812,102.178848 
	C135.005737,103.491531 135.072800,104.234367 135.139862,104.977196 
	C135.096008,105.739578 135.052155,106.501968 135.016693,107.881638 
	C135.066498,108.662148 135.107910,108.825371 135.149338,108.988602 
z"/>
<path fill="#F18931" opacity="1.000000" stroke="none" 
	d="
M135.150131,81.972099 
	C135.066116,85.298363 134.982086,88.624619 134.524994,92.525848 
	C129.462067,93.191048 124.759254,93.495964 120.091789,93.214622 
	C118.979828,93.147606 117.985962,91.121498 116.937790,89.996475 
	C117.019844,86.000648 117.101906,82.004829 117.634796,77.474457 
	C123.709885,76.995544 129.334152,77.051163 134.958420,77.106789 
	C134.958420,77.106789 134.954544,77.577827 134.947754,78.189102 
	C135.010681,79.857620 135.080399,80.914864 135.150131,81.972099 
z"/>
<path fill="#F1872F" opacity="1.000000" stroke="none" 
	d="
M93.168503,117.579056 
	C93.097717,116.298622 93.026924,115.018188 92.968452,112.907555 
	C93.018257,108.398712 93.055740,104.720055 93.093224,101.041405 
	C93.249336,100.973053 93.405449,100.904694 94.223434,100.778839 
	C98.367752,100.730110 101.872780,100.989143 105.326309,100.677475 
	C108.802666,100.363754 110.531570,101.671227 110.875359,105.043434 
	C110.832878,106.105904 110.790390,107.168381 110.718307,109.000763 
	C110.407288,112.474541 110.125877,115.178413 109.844475,117.882286 
	C109.844475,117.882286 109.938637,117.942719 109.476273,117.845062 
	C106.009262,117.825233 103.004616,117.903061 99.999977,117.980888 
	C98.605553,117.909966 97.211128,117.839035 95.112350,117.761238 
	C93.994843,117.695938 93.581673,117.637497 93.168503,117.579056 
z"/>
<path fill="#F1872F" opacity="1.000000" stroke="none" 
	d="
M135.136383,60.981827 
	C135.083099,62.380119 135.029800,63.778412 134.979996,65.838776 
	C135.031876,66.664467 135.080276,66.828079 135.128662,66.991684 
	C135.059067,67.415161 134.989471,67.838638 134.487396,68.697693 
	C128.408951,69.019196 122.762985,68.905113 117.117020,68.791031 
	C117.116371,67.132576 117.115723,65.474121 117.107376,63.077793 
	C117.036690,61.891201 116.973694,61.442478 116.910706,60.993755 
	C116.977448,59.926411 117.044189,58.859066 117.132111,56.983559 
	C116.957794,53.683067 118.018379,52.555218 120.601913,52.675652 
	C125.372520,52.898041 130.149979,52.973309 134.924591,53.109867 
	C134.924591,53.109867 134.981918,53.035000 134.931824,53.292992 
	C134.881714,53.550983 135.100815,53.992947 135.100815,53.992947 
	C135.059387,55.393082 135.017960,56.793217 134.971436,58.929237 
	C135.023026,60.104023 135.079697,60.542927 135.136383,60.981827 
z"/>
<path fill="#FAF6EF" opacity="1.000000" stroke="none" 
	d="
M92.766846,101.149673 
	C93.055740,104.720055 93.018257,108.398712 92.895279,112.529282 
	C91.475319,112.626350 90.140862,112.271500 87.673439,111.615372 
	C88.262459,115.511917 88.702248,118.421249 89.254509,122.074600 
	C86.582474,120.903961 83.947701,119.749641 81.405716,118.085213 
	C84.698608,118.035889 86.521545,117.195625 86.163712,113.414955 
	C85.868744,110.298630 86.379715,107.091225 85.931961,104.011642 
	C85.758781,102.820564 83.988914,101.038696 82.843643,100.956383 
	C78.237610,100.625313 73.591362,100.853844 68.959969,100.875595 
	C68.962357,98.613731 68.964745,96.351875 69.428932,93.697380 
	C73.836311,93.324501 77.793869,93.161186 81.723946,93.418144 
	C85.288246,93.651169 86.332306,92.143394 86.150406,88.807465 
	C85.935860,84.872925 86.093269,80.918098 86.089409,76.972069 
	C86.726173,78.274147 87.967461,79.612129 87.892639,80.871941 
	C87.604294,85.727081 87.050293,90.581711 86.291626,95.388611 
	C85.729340,98.951324 88.047264,101.347572 92.766846,101.149673 
z"/>
<path fill="#F0862D" opacity="1.000000" stroke="none" 
	d="
M68.968048,100.913589 
	C73.591362,100.853844 78.237610,100.625313 82.843643,100.956383 
	C83.988914,101.038696 85.758781,102.820564 85.931961,104.011642 
	C86.379715,107.091225 85.868744,110.298630 86.163712,113.414955 
	C86.521545,117.195625 84.698608,118.035889 81.243454,117.759872 
	C80.548988,117.892349 80.109589,117.840057 79.058754,117.680283 
	C76.968422,117.619598 75.470413,117.532188 74.014336,117.739410 
	C70.279350,118.270966 68.371414,116.872726 68.607048,112.971092 
	C68.662231,112.537849 68.717415,112.104599 68.779892,110.906937 
	C68.824287,107.078499 68.861374,104.014465 68.898468,100.950439 
	C68.898476,100.950439 68.976128,100.951584 68.968048,100.913589 
z"/>
<path fill="#F1852B" opacity="1.000000" stroke="none" 
	d="
M92.999641,69.001785 
	C92.986076,67.924988 92.972511,66.848183 92.944702,65.075722 
	C92.748596,64.042297 92.566719,63.704540 92.384842,63.366783 
	C92.561935,62.056866 92.739029,60.746948 92.912552,58.709473 
	C92.952248,56.333515 92.995522,54.685120 93.038803,53.036724 
	C93.038803,53.036724 93.000000,53.000153 93.477676,52.931305 
	C98.107346,52.809212 102.259552,52.768646 106.411247,52.697514 
	C108.570953,52.660515 110.753883,52.874527 110.267303,55.763866 
	C109.512718,60.244553 112.523567,65.259514 108.387207,69.218788 
	C108.113235,69.481033 107.421585,69.342529 106.925514,69.331566 
	C102.283394,69.228966 97.641556,69.113518 92.999641,69.001785 
z"/>
<path fill="#F0862D" opacity="1.000000" stroke="none" 
	d="
M86.055450,76.973404 
	C86.093269,80.918098 85.935860,84.872925 86.150406,88.807465 
	C86.332306,92.143394 85.288246,93.651169 81.723946,93.418144 
	C77.793869,93.161186 73.836311,93.324501 69.418777,93.275017 
	C68.946823,93.245285 68.981796,93.094887 68.924652,92.623978 
	C68.773247,89.089622 68.678986,86.026176 68.584732,82.962730 
	C68.653076,82.226387 68.721420,81.490051 68.818344,79.960304 
	C69.978844,78.358147 71.080078,76.909546 72.248116,76.853523 
	C76.832870,76.633621 81.438683,76.852623 86.036674,76.908615 
	C86.036674,76.908615 86.021500,76.974731 86.055450,76.973404 
z"/>
<path fill="#EF8327" opacity="1.000000" stroke="none" 
	d="
M68.623077,65.972710 
	C68.682495,65.233566 68.741913,64.494423 68.802773,62.947998 
	C68.828613,59.074928 68.853012,56.009144 68.877419,52.943356 
	C68.877419,52.943356 68.961243,52.938801 69.419159,52.852715 
	C73.981728,52.747814 78.091797,52.851486 82.189217,52.669773 
	C85.234734,52.534710 86.231667,53.800468 86.114151,56.734478 
	C85.950043,60.831913 86.099724,64.941917 86.115128,69.046547 
	C86.115128,69.046547 86.030823,69.053429 85.571915,69.119965 
	C80.850533,69.219208 76.564590,69.512169 72.339424,69.131119 
	C71.016457,69.011803 69.857246,67.076675 68.623077,65.972710 
z"/>
<path fill="#252525" opacity="1.000000" stroke="none" 
	d="
M146.995193,131.000961 
	C149.920395,128.614609 153.051224,127.103432 157.319763,128.714111 
	C160.590668,130.959595 162.687180,133.511917 161.854446,137.790741 
	C157.478516,137.790741 153.226364,137.790741 148.900192,137.790741 
	C150.142517,142.843430 153.675598,144.131577 157.450089,140.999741 
	C159.069763,139.655838 160.283386,137.956955 162.640930,140.509140 
	C163.124588,140.515823 163.077438,140.724854 163.077438,140.724854 
	C162.377090,140.896561 161.325424,140.834534 161.031342,141.276535 
	C158.412766,145.212479 154.686539,146.282639 150.587860,144.648819 
	C146.418900,142.986969 144.761719,139.421310 145.655823,134.263672 
	C146.236267,132.750031 146.615723,131.875488 146.995193,131.000961 
M149.052444,134.863647 
	C152.238297,134.863647 155.424164,134.863647 158.690643,134.863647 
	C156.013580,129.638245 152.472321,129.386093 149.052444,134.863647 
z"/>
<path fill="#1B1B1B" opacity="1.000000" stroke="none" 
	d="
M86.067947,132.370102 
	C89.557098,128.117813 93.727364,126.971558 99.174286,129.191605 
	C99.799637,128.657593 99.974930,128.526733 100.150223,128.395889 
	C100.748871,128.849182 101.861115,129.293808 101.868935,129.757065 
	C101.981766,136.440308 101.946175,143.126022 101.946175,149.811157 
	C101.299339,149.927109 100.652496,150.043060 100.005661,150.159012 
	C99.560219,148.205307 99.114769,146.251602 98.614136,144.055847 
	C94.498016,145.678970 90.402969,146.115524 86.659065,141.627319 
	C86.203300,138.189453 86.137505,135.334137 86.070404,132.431763 
	C86.069099,132.384689 86.067947,132.370102 86.067947,132.370102 
M99.127464,136.527664 
	C97.735077,134.695786 96.672020,132.259811 94.828781,131.254944 
	C93.693977,130.636276 90.595169,131.683502 89.766563,132.916092 
	C88.659935,134.562241 88.046082,137.502853 88.803596,139.166901 
	C89.554634,140.816711 92.674614,142.849121 94.029434,142.420166 
	C96.054291,141.779053 97.443214,139.129471 99.127464,136.527664 
z"/>
<path fill="#161616" opacity="1.000000" stroke="none" 
	d="
M136.879379,143.662933 
	C129.357697,146.934830 123.695747,145.574081 120.043617,138.908752 
	C119.939781,136.780380 119.940300,135.385147 119.940819,133.989899 
	C122.023193,130.072327 125.033623,127.736824 130.272797,128.462296 
	C131.216919,128.736847 131.606049,128.803680 131.995178,128.870499 
	C132.914078,128.786957 133.832993,128.703430 135.264191,128.697968 
	C136.103058,130.185303 136.429642,131.594559 136.630020,133.265625 
	C136.586548,133.702667 136.669312,133.877899 136.590469,134.424957 
	C136.536545,135.855865 136.644241,136.914948 136.641144,138.384048 
	C136.666840,139.042175 136.803345,139.290253 136.881668,139.772461 
	C136.861389,140.484222 136.899277,140.961868 136.756256,141.969681 
	C136.695877,142.853302 136.816406,143.206772 136.907166,143.598816 
	C136.877380,143.637390 136.879379,143.662933 136.879379,143.662933 
M123.152718,134.113358 
	C123.809799,136.642670 124.062607,139.405792 125.323448,141.585953 
	C125.826050,142.455017 129.103455,142.788712 130.147415,142.030396 
	C131.807007,140.824890 133.477127,138.550568 133.596008,136.632507 
	C133.700790,134.941681 131.905624,131.874176 130.561844,131.640121 
	C128.409393,131.265259 125.936546,132.730087 123.152718,134.113358 
z"/>
<path fill="#FAF6EF" opacity="1.000000" stroke="none" 
	d="
M68.294846,66.038910 
	C69.857246,67.076675 71.016457,69.011803 72.339424,69.131119 
	C76.564590,69.512169 80.850533,69.219208 85.584801,69.160248 
	C84.919014,70.634209 83.781441,72.134430 82.408760,73.944702 
	C83.469864,74.641304 84.685188,75.439140 85.968597,76.572800 
	C81.438683,76.852623 76.832870,76.633621 72.248116,76.853523 
	C71.080078,76.909546 69.978844,78.358147 68.731407,79.597626 
	C64.743591,77.211838 64.743607,77.211777 70.515724,73.331688 
	C70.668098,70.569359 62.277596,70.820412 68.294846,66.038910 
z"/>
<path fill="#212121" opacity="1.000000" stroke="none" 
	d="
M118.255356,139.111786 
	C118.155853,140.924240 118.056343,142.736679 117.884636,145.864105 
	C113.520538,144.768829 107.374069,144.949219 105.988037,142.469162 
	C103.976128,138.869186 105.400925,133.348557 105.735909,128.492523 
	C106.111801,128.338013 106.183243,128.322678 106.183243,128.322678 
	C106.481361,131.557663 106.374443,134.905670 107.233528,137.984100 
	C107.727997,139.755966 109.785843,141.091537 111.139954,142.623505 
	C112.513519,141.092163 114.554955,139.768799 115.111046,137.982925 
	C116.049545,134.969040 116.046967,131.662109 116.542870,128.004044 
	C116.645615,127.529678 116.733223,127.678993 116.733223,127.678993 
	C116.847267,127.839462 116.983650,127.977921 117.407570,128.399963 
	C117.824875,128.798035 117.976982,128.890533 118.129082,128.983032 
	C118.129257,129.745346 118.129440,130.507645 118.122604,132.041534 
	C118.162186,134.912659 118.208771,137.012222 118.255356,139.111786 
z"/>
<path fill="#FAF6EF" opacity="1.000000" stroke="none" 
	d="
M116.577164,90.067169 
	C117.985962,91.121498 118.979828,93.147606 120.091789,93.214622 
	C124.759254,93.495964 129.462067,93.191048 134.544006,92.975128 
	C133.376129,94.291763 131.816177,95.734085 129.904510,97.501602 
	C131.152618,98.232788 133.016830,99.324913 134.907104,100.790047 
	C130.343018,101.034607 125.744537,101.033791 121.165413,100.735748 
	C117.744034,100.513069 116.826172,102.189392 117.017899,105.584320 
	C116.375450,105.689430 115.358665,105.355217 115.370750,105.063667 
	C115.577126,100.085274 115.910858,95.112144 116.577164,90.067169 
z"/>
<path fill="#FAF6EF" opacity="1.000000" stroke="none" 
	d="
M93.073586,69.392548 
	C97.641556,69.113518 102.283394,69.228966 106.925514,69.331566 
	C107.421585,69.342529 108.113235,69.481033 108.387207,69.218788 
	C112.523567,65.259514 109.512718,60.244553 110.267303,55.763866 
	C110.753883,52.874527 108.570953,52.660515 106.411247,52.697514 
	C102.259552,52.768646 98.107346,52.809212 93.496674,52.950348 
	C93.933861,52.042976 94.795891,50.229313 95.731323,50.190632 
	C100.394951,49.997787 105.115227,49.986115 109.726608,50.590031 
	C110.821342,50.733395 112.201805,53.428913 112.358849,55.055901 
	C112.736755,58.971310 112.869667,63.010590 112.279007,66.874176 
	C112.010498,68.630539 109.782715,71.451660 108.461868,71.441414 
	C103.353111,71.401810 98.251686,70.416405 93.073586,69.392548 
z"/>
<path fill="#1E1E1E" opacity="1.000000" stroke="none" 
	d="
M85.609451,132.463318 
	C86.067947,132.370102 86.069099,132.384689 85.695007,132.074951 
	C83.932587,131.975189 82.547905,132.315781 81.154800,132.354706 
	C79.992485,132.387177 78.820297,132.066101 77.652481,131.901596 
	C78.463409,132.994949 79.059105,134.689636 80.124847,135.071106 
	C83.591232,136.311874 84.603836,138.669571 84.238861,142.009857 
	C82.520103,145.156937 79.672066,146.144241 76.714882,144.655563 
	C75.220810,143.903427 74.566658,141.482803 73.532738,139.816589 
	C73.990570,139.530411 74.448410,139.244247 74.906250,138.958084 
	C75.545357,139.561386 76.117523,140.266113 76.840057,140.743027 
	C77.801285,141.377518 78.843224,141.968842 79.935539,142.265060 
	C80.181526,142.331772 81.269211,140.920700 81.115555,140.507324 
	C80.761528,139.554977 80.052765,138.419937 79.186104,138.030197 
	C76.297585,136.731262 73.721954,135.406128 74.296036,131.255310 
	C74.018089,130.980804 73.932144,131.045654 74.271446,131.181229 
	C75.551735,130.281769 76.492729,129.246750 77.433716,128.211716 
	C81.392014,127.198395 83.204765,129.995972 85.609451,132.463318 
z"/>
<path fill="#1A1A1A" opacity="1.000000" stroke="none" 
	d="
M163.060440,141.087769 
	C163.077438,140.724854 163.124588,140.515823 163.093994,140.469772 
	C164.941666,137.886108 165.299606,139.920639 166.180344,141.302200 
	C166.610901,141.977585 167.791351,142.482147 168.631241,142.480499 
	C169.183792,142.479416 170.264450,141.334991 170.177322,140.881439 
	C169.985580,139.883102 169.307602,138.910065 168.622101,138.101273 
	C168.236969,137.646866 167.187439,137.710678 166.876114,137.246597 
	C165.714279,135.514786 163.796524,133.561050 163.975723,131.884399 
	C164.124802,130.489578 166.830902,128.366959 168.380417,128.387360 
	C170.143875,128.410568 171.880737,130.454712 173.629166,131.620453 
	C173.311279,132.127289 172.993378,132.634140 172.675491,133.140991 
	C171.830444,132.881149 171.000534,132.536652 170.136627,132.382416 
	C169.000015,132.179504 167.836700,132.126221 166.684860,132.008575 
	C167.410782,133.033325 167.919998,134.563766 168.904297,134.985535 
	C171.576584,136.130569 173.985352,137.514755 173.192337,140.717407 
	C172.789963,142.342438 171.210236,144.331512 169.696915,144.887161 
	C166.697113,145.988556 164.164124,144.732956 163.060440,141.087769 
z"/>
<path fill="#FAF6EF" opacity="1.000000" stroke="none" 
	d="
M86.496384,68.940674 
	C86.099724,64.941917 85.950043,60.831913 86.114151,56.734478 
	C86.231667,53.800468 85.234734,52.534710 82.189217,52.669773 
	C78.091797,52.851486 73.981728,52.747814 69.405563,52.813007 
	C69.056526,51.757645 69.179008,50.655907 69.341934,49.190342 
	C76.856972,52.683174 85.158974,48.709827 92.623505,53.024204 
	C92.995522,54.685120 92.952248,56.333515 92.841187,58.313271 
	C89.159019,58.564663 87.489136,60.059589 87.907005,63.918800 
	C88.078400,65.501755 87.250801,67.192879 86.496384,68.940674 
z"/>
<path fill="#FAF6EF" opacity="1.000000" stroke="none" 
	d="
M116.945297,69.164581 
	C122.762985,68.905113 128.408951,69.019196 134.509644,69.019867 
	C133.573807,69.605377 132.248215,70.592079 130.774963,70.924599 
	C129.211014,71.277596 127.456528,70.769440 125.882248,71.099709 
	C124.875244,71.310966 124.044044,72.360298 123.134033,73.033905 
	C124.062744,73.684357 124.912483,74.691147 125.935127,74.917809 
	C128.885132,75.571632 131.904831,75.910934 134.927795,76.740273 
	C129.334152,77.051163 123.709885,76.995544 117.636276,77.017227 
	C117.049141,74.575729 116.911354,72.056923 116.945297,69.164581 
z"/>
<path fill="#1D1D1D" opacity="1.000000" stroke="none" 
	d="
M74.054337,130.941010 
	C73.053192,131.978470 71.254959,132.969498 71.121292,134.149139 
	C70.723038,137.664047 70.978386,141.253021 70.978386,144.813049 
	C70.438683,144.933807 69.898972,145.054550 69.359268,145.175293 
	C68.930206,144.257431 68.191330,143.359390 68.131096,142.417923 
	C67.961281,139.763718 68.308159,137.060287 67.962738,134.440720 
	C67.804886,133.243637 66.499290,132.197891 65.293999,130.925598 
	C64.873756,130.767670 64.940331,130.837799 64.969475,130.871109 
	C65.213837,130.204300 65.429062,129.504181 66.281860,128.689682 
	C67.242996,127.380775 67.566544,126.186241 67.890091,124.991714 
	C69.195625,122.936424 70.216454,122.912880 70.986267,125.379494 
	C71.326218,126.468765 71.804207,127.514946 72.874924,128.750671 
	C73.664261,129.628998 73.798203,130.337326 73.932144,131.045654 
	C73.932144,131.045654 74.018089,130.980804 74.054337,130.941010 
z"/>
<path fill="#1F1E1E" opacity="1.000000" stroke="none" 
	d="
M137.363525,143.513458 
	C136.879379,143.662933 136.877380,143.637390 137.493042,143.597336 
	C137.718201,142.851364 137.327667,142.145432 136.937149,141.439514 
	C136.899277,140.961868 136.861389,140.484222 137.363129,139.922928 
	C138.187424,139.300751 138.472076,138.762238 138.831955,137.857758 
	C138.857529,135.991562 138.807892,134.491333 138.823318,132.603027 
	C139.055893,130.933868 139.223419,129.652786 139.390945,128.371689 
	C139.390945,128.371689 139.390167,128.343674 139.402191,128.352448 
	C141.315430,128.954727 143.216644,129.548248 144.961121,130.553802 
	C144.153305,131.373108 143.502228,131.780365 142.851151,132.187637 
	C142.271957,136.327713 141.692749,140.467789 141.044861,145.098923 
	C139.871689,144.462311 138.859680,143.913147 137.363525,143.513458 
z"/>
<path fill="#FAF6EF" opacity="1.000000" stroke="none" 
	d="
M110.256264,117.921799 
	C110.125877,115.178413 110.407288,112.474541 110.808449,109.391068 
	C112.641357,109.006035 114.354507,109.000603 116.493683,108.994675 
	C117.021545,111.360672 117.123383,113.727150 117.191383,116.535843 
	C114.994385,117.305794 112.831223,117.633553 110.256264,117.921799 
z"/>
<path fill="#FAF6EF" opacity="1.000000" stroke="none" 
	d="
M134.893494,52.729988 
	C130.149979,52.973309 125.372520,52.898041 120.601913,52.675652 
	C118.018379,52.555218 116.957794,53.683067 117.047165,56.589371 
	C116.399712,54.927582 115.858383,52.851822 115.273956,50.610806 
	C118.497375,50.366070 120.384224,50.222813 122.630661,50.042679 
	C126.348045,50.341347 129.713791,50.617294 133.056717,51.064095 
	C133.704330,51.150650 134.262787,51.904217 134.893494,52.729988 
z"/>
<path fill="#FAF6EF" opacity="1.000000" stroke="none" 
	d="
M111.178116,104.804138 
	C110.531570,101.671227 108.802666,100.363754 105.326309,100.677475 
	C101.872780,100.989143 98.367752,100.730110 94.424850,100.621414 
	C95.008652,99.699059 96.048882,98.186569 97.097900,98.180443 
	C100.582970,98.160095 104.068047,98.888458 107.559036,98.941551 
	C111.731171,99.004997 112.761772,100.885277 111.178116,104.804138 
z"/>
<path fill="#FAF6EF" opacity="1.000000" stroke="none" 
	d="
M68.280319,113.038605 
	C68.371414,116.872726 70.279350,118.270966 74.014336,117.739410 
	C75.470413,117.532188 76.968422,117.619598 78.733963,117.759109 
	C77.972229,119.370148 76.923851,120.794868 76.169586,121.819908 
	C74.553017,121.239479 72.834602,120.415428 71.022568,120.013290 
	C66.739998,119.062874 65.407326,116.209755 68.280319,113.038605 
z"/>
<path fill="#FAF6EF" opacity="1.000000" stroke="none" 
	d="
M129.033478,118.322845 
	C130.662552,117.851227 132.323837,117.734619 134.394745,117.554749 
	C136.197281,119.735542 137.590225,121.979607 138.990051,124.608170 
	C134.949326,124.047119 130.984924,122.970703 129.033478,118.322845 
z"/>
<path fill="#FAF6EF" opacity="1.000000" stroke="none" 
	d="
M84.630531,141.992126 
	C84.603836,138.669571 83.591232,136.311874 80.124847,135.071106 
	C79.059105,134.689636 78.463409,132.994949 77.652481,131.901596 
	C78.820297,132.066101 79.992485,132.387177 81.154800,132.354706 
	C82.547905,132.315781 83.932587,131.975189 85.696312,132.122040 
	C86.137505,135.334137 86.203300,138.189453 86.422699,141.408081 
	C86.058273,141.839066 85.540237,141.906723 84.630531,141.992126 
z"/>
<path fill="#FAF6EF" opacity="1.000000" stroke="none" 
	d="
M68.224396,82.971588 
	C68.678986,86.026176 68.773247,89.089622 68.848114,92.613869 
	C68.007889,92.523697 66.703842,92.130020 66.463043,91.390251 
	C65.896683,89.650261 65.523705,87.715103 65.694664,85.918114 
	C65.793480,84.879494 67.100700,83.955841 68.224396,82.971588 
z"/>
<path fill="#FAF6EF" opacity="1.000000" stroke="none" 
	d="
M68.530663,100.969574 
	C68.861374,104.014465 68.824287,107.078499 68.685135,110.590332 
	C67.501328,110.858635 66.419571,110.679131 66.144485,110.633492 
	C66.144485,107.658447 66.014099,105.150482 66.236694,102.674248 
	C66.291946,102.059647 67.490067,101.547783 68.530663,100.969574 
z"/>
<path fill="#FAF6EF" opacity="1.000000" stroke="none" 
	d="
M68.522408,52.962852 
	C68.853012,56.009144 68.828613,59.074928 68.701385,62.588356 
	C65.793884,63.036278 63.902191,62.632225 66.112694,59.182701 
	C66.773102,58.152115 66.280098,56.443554 66.623978,55.126122 
	C66.831421,54.331390 67.632866,53.691704 68.522408,52.962852 
z"/>
<path fill="#FAF6EF" opacity="1.000000" stroke="none" 
	d="
M93.117218,117.980820 
	C93.581673,117.637497 93.994843,117.695938 94.703102,117.859314 
	C94.572449,123.739899 92.877419,126.132790 88.672676,126.894325 
	C90.137199,124.057129 91.601562,121.219856 93.117218,117.980820 
z"/>
<path fill="#FAF6EF" opacity="1.000000" stroke="none" 
	d="
M100.082321,118.371796 
	C103.004616,117.903061 106.009262,117.825233 109.458069,117.792160 
	C107.006363,121.826683 103.575569,120.190163 100.082321,118.371796 
z"/>
<path fill="#FAF6EF" opacity="1.000000" stroke="none" 
	d="
M116.776505,127.277306 
	C116.733223,127.678993 116.645615,127.529678 116.649353,127.561638 
	C114.063530,126.926308 110.854950,126.938271 111.505936,121.136154 
	C113.773056,123.584854 115.296425,125.230232 116.776505,127.277306 
z"/>
<path fill="#FAF6EF" opacity="1.000000" stroke="none" 
	d="
M74.271446,131.181229 
	C73.798203,130.337326 73.664261,129.628998 73.255386,128.673645 
	C73.180397,127.395432 73.380333,126.364243 73.718330,124.620949 
	C75.091850,126.063019 75.951172,126.965225 77.122101,128.039581 
	C76.492729,129.246750 75.551735,130.281769 74.271446,131.181229 
z"/>
<path fill="#FAF6EF" opacity="1.000000" stroke="none" 
	d="
M118.652504,139.088593 
	C118.208771,137.012222 118.162186,134.912659 118.192177,132.416321 
	C118.677650,132.582565 119.086540,133.145569 119.718124,133.849243 
	C119.940300,135.385147 119.939781,136.780380 119.891235,138.591721 
	C119.578682,139.027008 119.314171,139.046204 118.652504,139.088593 
z"/>
<path fill="#FEFFFE" opacity="1.000000" stroke="none" 
	d="
M138.885956,128.260483 
	C139.223419,129.652786 139.055893,130.933868 138.627823,132.602814 
	C138.367264,132.990662 137.976425,133.001801 137.671387,133.002045 
	C137.162964,133.002808 136.959595,133.003311 136.756241,133.003799 
	C136.429642,131.594559 136.103058,130.185303 135.526154,128.499939 
	C136.310883,128.198975 137.345932,128.174133 138.885956,128.260483 
z"/>
<path fill="#FAF6EF" opacity="1.000000" stroke="none" 
	d="
M117.197388,117.768349 
	C118.255516,117.530746 119.258049,117.674141 120.631180,117.911980 
	C120.288338,118.884949 119.574905,119.763481 118.861465,120.642006 
	C118.288239,119.811119 117.715019,118.980232 117.197388,117.768349 
z"/>
<path fill="#FAF6EF" opacity="1.000000" stroke="none" 
	d="
M92.499649,82.071960 
	C92.897141,83.387558 92.951187,84.785301 92.924484,86.596146 
	C90.127045,85.743134 90.342903,84.061722 92.499649,82.071960 
z"/>
<path fill="#FAF6EF" opacity="1.000000" stroke="none" 
	d="
M143.025574,132.600327 
	C143.502228,131.780365 144.153305,131.373108 144.999207,130.832626 
	C145.493484,130.754044 145.792953,130.808670 146.543823,130.932129 
	C146.615723,131.875488 146.236267,132.750031 145.707489,133.872406 
	C144.772125,133.751190 143.986053,133.382095 143.025574,132.600327 
z"/>
<path fill="#FAF6EF" opacity="1.000000" stroke="none" 
	d="
M100.333191,128.150284 
	C99.974930,128.526733 99.799637,128.657593 99.312325,128.889771 
	C99.128304,127.819565 99.256302,126.648003 99.384300,125.476448 
	C99.761589,125.478424 100.138870,125.480408 100.516151,125.482391 
	C100.516151,126.289818 100.516151,127.097244 100.333191,128.150284 
z"/>
<path fill="#FAF6EF" opacity="1.000000" stroke="none" 
	d="
M116.573608,60.999031 
	C116.973694,61.442478 117.036690,61.891201 117.015121,62.672234 
	C116.114281,62.705391 115.297997,62.406239 114.481705,62.107086 
	C115.066643,61.739498 115.651588,61.371902 116.573608,60.999031 
z"/>
<path fill="#FAF6EF" opacity="1.000000" stroke="none" 
	d="
M93.129791,76.182640 
	C93.187965,76.523895 93.236053,76.837799 93.099884,76.919456 
	C92.368423,76.546799 91.726883,76.135674 91.222969,75.596024 
	C91.138115,75.505150 91.647766,74.859146 91.882736,74.469635 
	C92.279030,74.926888 92.675323,75.384132 93.129791,76.182640 
z"/>
<path fill="#FAF6EF" opacity="1.000000" stroke="none" 
	d="
M67.528671,125.074760 
	C67.566544,126.186241 67.242996,127.380775 66.505043,128.504669 
	C66.449516,127.341957 66.808388,126.249886 67.528671,125.074760 
z"/>
<path fill="#FAF6EF" opacity="1.000000" stroke="none" 
	d="
M91.543900,96.589584 
	C90.997467,96.408203 90.705605,96.114647 90.413742,95.821091 
	C90.953171,95.641563 91.492599,95.462036 92.032036,95.282509 
	C91.954178,95.680809 91.876320,96.079117 91.543900,96.589584 
z"/>
<path fill="#FAF6EF" opacity="1.000000" stroke="none" 
	d="
M81.610748,121.536354 
	C82.058189,121.651848 82.332420,121.933632 82.585480,122.233299 
	C82.591949,122.240959 82.365898,122.444969 82.248283,122.557411 
	C81.977119,122.273270 81.705948,121.989128 81.610748,121.536354 
z"/>
<path fill="#FAF6EF" opacity="1.000000" stroke="none" 
	d="
M106.500359,128.201782 
	C106.183243,128.322678 106.111801,128.338013 106.075447,128.334564 
	C106.336975,127.736992 106.634850,127.142883 106.932724,126.548782 
	C107.140060,126.712746 107.547050,126.977097 107.523079,127.024757 
	C107.334320,127.400154 107.063225,127.734146 106.500359,128.201782 
z"/>
<path fill="#FAF6EF" opacity="1.000000" stroke="none" 
	d="
M92.317108,63.660992 
	C92.566719,63.704540 92.748596,64.042297 92.870674,64.678650 
	C92.623711,64.636559 92.436546,64.295883 92.317108,63.660992 
z"/>
<path fill="#FAF6EF" opacity="1.000000" stroke="none" 
	d="
M131.797180,128.648254 
	C131.606049,128.803680 131.216919,128.736847 130.642105,128.431839 
	C130.837341,128.271118 131.218277,128.348572 131.797180,128.648254 
z"/>
<path fill="#FAF6EF" opacity="1.000000" stroke="none" 
	d="
M118.266678,128.810501 
	C117.976982,128.890533 117.824875,128.798035 117.528633,128.481506 
	C117.724426,128.384323 118.064354,128.511139 118.266678,128.810501 
z"/>
<path fill="#FAF6EF" opacity="1.000000" stroke="none" 
	d="
M123.079880,118.167648 
	C123.166573,117.951294 123.334785,117.908386 123.750420,117.946625 
	C123.719032,118.132202 123.440208,118.236649 123.079880,118.167648 
z"/>
<path fill="#FAF6EF" opacity="1.000000" stroke="none" 
	d="
M142.920715,97.019142 
	C142.414001,97.610367 141.905380,97.877800 141.396759,98.145226 
	C141.393051,97.399620 141.389343,96.654022 141.385651,95.908417 
	C141.896698,96.170723 142.407745,96.433029 142.920715,97.019142 
z"/>
<path fill="#FAF6EF" opacity="1.000000" stroke="none" 
	d="
M141.997559,116.001694 
	C142.247665,116.698166 142.497787,117.394646 142.747894,118.091118 
	C142.349487,118.177055 141.951080,118.262985 141.552673,118.348915 
	C141.626877,117.752312 141.701111,117.155716 141.887665,116.279556 
	C142.000000,116.000000 141.997559,116.001694 141.997559,116.001694 
z"/>
<path fill="#FAF6EF" opacity="1.000000" stroke="none" 
	d="
M142.000793,115.999481 
	C141.751907,115.301865 141.502228,114.604752 141.252548,113.907639 
	C141.651199,113.821960 142.049835,113.736275 142.448486,113.650589 
	C142.373901,114.247505 142.299301,114.844421 142.111130,115.721512 
	C141.997559,116.001694 142.000000,116.000000 142.000793,115.999481 
z"/>
<path fill="#FAF6EF" opacity="1.000000" stroke="none" 
	d="
M135.383881,81.750954 
	C135.080399,80.914864 135.010681,79.857620 135.028458,78.410370 
	C135.283188,79.190178 135.450409,80.359993 135.383881,81.750954 
z"/>
<path fill="#FAF6EF" opacity="1.000000" stroke="none" 
	d="
M135.365173,104.785721 
	C135.072800,104.234367 135.005737,103.491531 135.027374,102.383499 
	C135.274200,102.876945 135.432343,103.735603 135.365173,104.785721 
z"/>
<path fill="#FAF6EF" opacity="1.000000" stroke="none" 
	d="
M135.340057,60.833115 
	C135.079697,60.542927 135.023026,60.104023 135.054764,59.342308 
	C135.276688,59.574463 135.410202,60.129433 135.340057,60.833115 
z"/>
<path fill="#FAF6EF" opacity="1.000000" stroke="none" 
	d="
M135.256775,53.885880 
	C135.100815,53.992947 134.881714,53.550983 134.886108,53.304520 
	C135.064575,53.298313 135.238647,53.538563 135.256775,53.885880 
z"/>
<path fill="#FAF6EF" opacity="1.000000" stroke="none" 
	d="
M135.136765,116.936462 
	C134.951721,116.831573 134.942139,116.659286 135.035736,116.249634 
	C135.275742,116.202698 135.431183,116.383835 135.534622,116.590950 
	C135.556870,116.635521 135.391296,116.773903 135.136765,116.936462 
z"/>
<path fill="#FAF6EF" opacity="1.000000" stroke="none" 
	d="
M135.278870,66.899857 
	C135.080276,66.828079 135.031876,66.664467 135.051117,66.254013 
	C135.222198,66.274132 135.325638,66.541084 135.278870,66.899857 
z"/>
<path fill="#FAF6EF" opacity="1.000000" stroke="none" 
	d="
M135.297241,108.900101 
	C135.107910,108.825371 135.066498,108.662148 135.097366,108.256912 
	C135.314804,108.179581 135.478973,108.332520 135.592407,108.516716 
	C135.622803,108.566055 135.498444,108.710701 135.297241,108.900101 
z"/>
<path fill="#F8F8F8" opacity="1.000000" stroke="none" 
	d="
M44.274956,132.380096 
	C44.219997,140.788391 42.132114,142.513428 33.142357,141.843307 
	C33.142357,136.781143 33.142357,131.698380 33.142357,126.632790 
	C40.393768,125.719131 41.902622,126.460747 44.274956,132.380096 
z"/>
<path fill="#F3F3F3" opacity="1.000000" stroke="none" 
	d="
M54.762169,142.231873 
	C54.124340,141.935379 53.793015,141.826691 53.554794,141.613815 
	C50.837936,139.185959 49.878204,135.998627 52.386154,133.385925 
	C53.822037,131.890060 57.752979,130.727371 59.005375,131.613266 
	C60.766960,132.859344 62.031490,136.244965 61.794197,138.538269 
	C61.450878,141.856201 58.608280,143.265991 54.762169,142.231873 
z"/>
<path fill="#F1F1F1" opacity="1.000000" stroke="none" 
	d="
M148.953339,134.432861 
	C152.472321,129.386093 156.013580,129.638245 158.690643,134.863647 
	C155.424164,134.863647 152.238297,134.863647 148.953339,134.432861 
z"/>
<path fill="#F4F4F4" opacity="1.000000" stroke="none" 
	d="
M99.115067,136.930969 
	C97.443214,139.129471 96.054291,141.779053 94.029434,142.420166 
	C92.674614,142.849121 89.554634,140.816711 88.803596,139.166901 
	C88.046082,137.502853 88.659935,134.562241 89.766563,132.916092 
	C90.595169,131.683502 93.693977,130.636276 94.828781,131.254944 
	C96.672020,132.259811 97.735077,134.695786 99.115067,136.930969 
z"/>
<path fill="#F3F3F3" opacity="1.000000" stroke="none" 
	d="
M123.375916,133.765320 
	C125.936546,132.730087 128.409393,131.265259 130.561844,131.640121 
	C131.905624,131.874176 133.700790,134.941681 133.596008,136.632507 
	C133.477127,138.550568 131.807007,140.824890 130.147415,142.030396 
	C129.103455,142.788712 125.826050,142.455017 125.323448,141.585953 
	C124.062607,139.405792 123.809799,136.642670 123.375916,133.765320 
z"/>
<path fill="#FAF6EF" opacity="1.000000" stroke="none" 
	d="
M137.976425,133.001801 
	C137.976425,133.001801 138.367264,132.990662 138.562759,132.990875 
	C138.807892,134.491333 138.857529,135.991562 138.331787,137.786011 
	C137.421585,138.044830 137.086761,138.009415 136.751923,137.974014 
	C136.644241,136.914948 136.536545,135.855865 136.846954,134.314941 
	C137.502167,133.555984 137.739288,133.278885 137.976425,133.001801 
z"/>
<path fill="#FFFFFF" opacity="1.000000" stroke="none" 
	d="
M136.641144,138.384048 
	C137.086761,138.009415 137.421585,138.044830 138.256592,138.151978 
	C138.472076,138.762238 138.187424,139.300751 137.421295,139.688812 
	C136.803345,139.290253 136.666840,139.042175 136.641144,138.384048 
z"/>
<path fill="#FFFFFF" opacity="1.000000" stroke="none" 
	d="
M137.671387,133.002045 
	C137.739288,133.278885 137.502167,133.555984 137.008560,133.943100 
	C136.669312,133.877899 136.586548,133.702667 136.630020,133.265625 
	C136.959595,133.003311 137.162964,133.002808 137.671387,133.002045 
z"/>
<path fill="#FFFFFF" opacity="1.000000" stroke="none" 
	d="
M136.756256,141.969681 
	C137.327667,142.145432 137.718201,142.851364 137.522827,143.558746 
	C136.816406,143.206772 136.695877,142.853302 136.756256,141.969681 
z"/>
</svg>